<svg width="18" height="17" viewBox="0 0 18 17" fill="none" xmlns="http://www.w3.org/2000/svg">
<path d="M9 11.0055V12.6731M3 16.0083H15C15.5304 16.0083 16.0391 15.8326 16.4142 15.5199C16.7893 15.2072 17 14.783 17 14.3407V9.33795C17 8.89568 16.7893 8.47152 16.4142 8.15879C16.0391 7.84605 15.5304 7.67036 15 7.67036H3C2.46957 7.67036 1.96086 7.84605 1.58579 8.15879C1.21071 8.47152 1 8.89568 1 9.33795V14.3407C1 14.783 1.21071 15.2072 1.58579 15.5199C1.96086 15.8326 2.46957 16.0083 3 16.0083ZM13 7.67036V4.33518C13 3.45064 12.5786 2.60232 11.8284 1.97685C11.0783 1.35138 10.0609 1 9 1C7.93913 1 6.92172 1.35138 6.17157 1.97685C5.42143 2.60232 5 3.45064 5 4.33518V7.67036H13Z" stroke="black" stroke-width="1.5" stroke-linecap="round" stroke-linejoin="round"/>
</svg>
