<svg width="40" height="40" viewBox="0 0 40 40" fill="none" xmlns="http://www.w3.org/2000/svg">
<mask id="path-1-inside-1_1_31" fill="white">
<path d="M2.5 14.375H12.5H2.5ZM2.5 18.125H12.5H2.5ZM15 18.125H25H15ZM15 14.375H25H15ZM27.5 18.125H37.5H27.5ZM27.5 14.375H37.5H27.5ZM2.5 21.875H12.5H2.5ZM15 21.875H25H15ZM27.5 21.875H37.5H27.5ZM2.5 25.625H10H2.5ZM15 25.625H21.25H15ZM27.5 25.625H35H27.5Z"/>
</mask>
<path d="M2.5 21.375H12.5V7.375H2.5V21.375ZM2.5 25.125H12.5V11.125H2.5V25.125ZM15 25.125H25V11.125H15V25.125ZM15 21.375H25V7.375H15V21.375ZM27.5 25.125H37.5V11.125H27.5V25.125ZM27.5 21.375H37.5V7.375H27.5V21.375ZM2.5 28.875H12.5V14.875H2.5V28.875ZM15 28.875H25V14.875H15V28.875ZM27.5 28.875H37.5V14.875H27.5V28.875ZM2.5 32.625H10V18.625H2.5V32.625ZM15 32.625H21.25V18.625H15V32.625ZM27.5 32.625H35V18.625H27.5V32.625Z" fill="#EB2AE3" mask="url(#path-1-inside-1_1_31)"/>
<path d="M9 10V12.8371H31.6969V10H9ZM9 15.6742V18.5114H31.6969V15.6742H9ZM9 21.3485V24.1856H31.6969V21.3485H9ZM14.6742 27.0227V29.8598H31.6969V27.0227H14.6742Z" fill="#EB2AE3"/>
</svg>
