<svg width="40" height="40" viewBox="0 0 40 40" fill="none" xmlns="http://www.w3.org/2000/svg">
<path d="M32 20C32 26.6274 26.6274 32 20 32C13.3726 32 8 26.6274 8 20C8 13.3726 13.3726 8 20 8C26.6274 8 32 13.3726 32 20Z" fill="black" stroke="#79EB20"/>
<mask id="path-2-inside-1_1_38" fill="white">
<path d="M13.75 21.7606L17.1144 25L26.25 16.25"/>
</mask>
<path d="M13.75 21.7606L17.1144 25L26.25 16.25" fill="black"/>
<path d="M17.1144 25L16.4208 25.7204L17.1126 26.3864L17.8061 25.7222L17.1144 25ZM13.0564 22.481L16.4208 25.7204L17.808 24.2796L14.4436 21.0403L13.0564 22.481ZM17.8061 25.7222L26.9417 16.9722L25.5583 15.5278L16.4227 24.2778L17.8061 25.7222Z" fill="#79EB20" mask="url(#path-2-inside-1_1_38)"/>
</svg>
