<svg width="19" height="16" viewBox="0 0 19 16" fill="none" xmlns="http://www.w3.org/2000/svg">
<path d="M18.3313 14.0469L1.51253 0.898707C1.4664 0.861772 1.41345 0.834286 1.35669 0.817817C1.29994 0.801347 1.2405 0.796218 1.18176 0.802721C1.12303 0.809224 1.06615 0.827232 1.01437 0.855717C0.962592 0.884203 0.916934 0.922607 0.879999 0.968738L0.598749 1.32002C0.561728 1.36617 0.53417 1.41916 0.517652 1.47597C0.501134 1.53278 0.495979 1.59229 0.502484 1.65109C0.508989 1.70989 0.527025 1.76683 0.55556 1.81866C0.584095 1.87048 0.622569 1.91617 0.668781 1.95311L17.4875 15.1013C17.5337 15.1382 17.5866 15.1657 17.6434 15.1822C17.7001 15.1986 17.7596 15.2038 17.8183 15.1973C17.877 15.1908 17.9339 15.1727 17.9857 15.1443C18.0375 15.1158 18.0831 15.0774 18.1201 15.0312L18.4013 14.68C18.4383 14.6338 18.4659 14.5808 18.4824 14.524C18.4989 14.4672 18.5041 14.4077 18.4976 14.3489C18.4911 14.2901 18.473 14.2331 18.4445 14.1813C18.416 14.1295 18.3775 14.0838 18.3313 14.0469ZM8.84725 4.91946L12.6382 7.88327C12.5758 6.19746 11.201 4.84999 9.50003 4.84999C9.28061 4.8504 9.06184 4.87368 8.84725 4.91946ZM10.1528 11.0808L6.36184 8.11699C6.42456 9.80252 7.79931 11.15 9.50003 11.15C9.71943 11.1495 9.93819 11.1263 10.1528 11.0808ZM9.50003 3.94999C12.2746 3.94999 14.8182 5.49686 16.1918 7.99999C15.8551 8.61603 15.439 9.18526 14.9543 9.69311L16.0157 10.5228C16.6067 9.8906 17.1074 9.17971 17.5036 8.41033C17.5679 8.28306 17.6014 8.14245 17.6014 7.99985C17.6014 7.85724 17.5679 7.71663 17.5036 7.58936C15.9769 4.61346 12.9574 2.59999 9.50003 2.59999C8.46784 2.59999 7.48319 2.79686 6.55731 3.12902L7.86259 4.14968C8.39528 4.02874 8.94091 3.94999 9.50003 3.94999ZM9.50003 12.05C6.7255 12.05 4.18216 10.5031 2.80825 7.99999C3.14541 7.38395 3.56193 6.81481 4.04716 6.30714L2.98572 5.47746C2.39485 6.10956 1.89426 6.82036 1.49819 7.58964C1.43385 7.71691 1.40033 7.85752 1.40033 8.00013C1.40033 8.14274 1.43385 8.28334 1.49819 8.41061C3.02341 11.3865 6.04291 13.4 9.50003 13.4C10.5322 13.4 11.5169 13.2017 12.4427 12.871L11.1375 11.8506C10.6048 11.9712 10.0594 12.05 9.50003 12.05Z" fill="black"/>
</svg>
