<svg width="19" height="18" viewBox="0 0 19 18" fill="none" xmlns="http://www.w3.org/2000/svg">
<g clip-path="url(#clip0_7_499)">
<path d="M9.49996 3.48C11.19 3.48 12.33 4.21 12.98 4.82L15.52 2.34C13.96 0.89 11.93 0 9.49996 0C5.97996 0 2.93996 2.02 1.45996 4.96L4.36996 7.22C5.09996 5.05 7.11996 3.48 9.49996 3.48Z" fill="#EA4335"/>
<path d="M18.14 9.2C18.14 8.46 18.08 7.92 17.95 7.36H9.5V10.7H14.46C14.36 11.53 13.82 12.78 12.62 13.62L15.46 15.82C17.16 14.25 18.14 11.94 18.14 9.2Z" fill="#4285F4"/>
<path d="M4.38 10.78C4.18336 10.2071 4.08201 9.60575 4.08 9.00001C4.08 8.38001 4.19 7.78001 4.37 7.22001L1.46 4.96001C0.829739 6.21353 0.501005 7.59695 0.5 9.00001C0.5 10.45 0.85 11.82 1.46 13.04L4.38 10.78Z" fill="#FBBC05"/>
<path d="M9.49997 18C11.93 18 13.97 17.2 15.46 15.82L12.62 13.62C11.86 14.15 10.84 14.52 9.49997 14.52C7.11997 14.52 5.09997 12.95 4.37997 10.78L1.46997 13.04C2.94997 15.98 5.97997 18 9.49997 18Z" fill="#34A853"/>
</g>
<defs>
<clipPath id="clip0_7_499">
<rect width="18" height="18" fill="white" transform="translate(0.5)"/>
</clipPath>
</defs>
</svg>
