<svg width="32" height="32" viewBox="0 0 32 32" fill="none" xmlns="http://www.w3.org/2000/svg">
<path d="M22 11C22 14.3137 19.3137 17 16 17C12.6863 17 10 14.3137 10 11C10 7.68629 12.6863 5 16 5C19.3137 5 22 7.68629 22 11Z" stroke="black"/>
<path d="M15.1341 15.4999L15.1341 15.4999C16.7909 12.6301 20.4604 11.6469 23.3302 13.3037C26.1999 14.9605 27.1832 18.6301 25.5264 21.4999C23.8695 24.3696 20.1999 25.3528 17.3302 23.696C14.4604 22.0391 13.4772 18.3696 15.1341 15.4999Z" stroke="black"/>
<path d="M16.8661 15.5L16.8661 15.5001C18.5231 18.3698 17.5398 22.0394 14.6701 23.6962C11.8003 25.3531 8.13073 24.3698 6.47387 21.5C4.81703 18.6303 5.80028 14.9608 8.67003 13.304C11.5398 11.6471 15.2093 12.6303 16.8661 15.5Z" stroke="black"/>
</svg>
