<svg width="18" height="28" viewBox="0 0 19 29" fill="none" xmlns="http://www.w3.org/2000/svg">
<path d="M6 19.5L14.75 17.625M6 22L14.75 20.125M7.875 7H12.875" stroke="black"/>
<path d="M1 9.75C1 4.91751 4.9175 1 9.75 1C14.5825 1 18.5 4.91751 18.5 9.75V10.2539C18.5 12.3553 17.7849 14.3939 16.4721 16.0347L15.0468 17.8166C14.0455 19.0681 13.5 20.6231 13.5 22.2259V24.75C13.5 26.8211 11.8211 28.5 9.75 28.5C7.67887 28.5 6 26.8211 6 24.75V22.2259C6 20.6231 5.4545 19.0681 4.45325 17.8166L3.02788 16.0347C1.71513 14.3939 1 12.3553 1 10.2539V9.75Z" stroke="black"/>
</svg>
