<svg width="19" height="30" viewBox="0 0 21 32" fill="none" xmlns="http://www.w3.org/2000/svg">
<path d="M19.75 21.625C19.75 26.8026 15.5526 31 10.375 31C5.19738 31 1 26.8026 1 21.625M4.75 9.125C4.75 8.08946 3.9105 7.25 2.875 7.25C1.83946 7.25 1 8.08946 1 9.125V22.25M8.5 4.125C8.5 3.08946 7.6605 2.25 6.625 2.25C5.5895 2.25 4.75 3.08946 4.75 4.125V16M8.5 16V2.875C8.5 1.83946 9.3395 1 10.375 1C11.4105 1 12.25 1.83946 12.25 2.875V16M16 15.375V4.125C16 3.08946 15.1605 2.25 14.125 2.25C13.0895 2.25 12.25 3.08946 12.25 4.125M16 15.375V19.125M16 15.375C16 14.3395 16.8395 13.5 17.875 13.5C18.9105 13.5 19.75 14.3395 19.75 15.375V22.25" stroke="black"/>
</svg>
