<svg width="15" height="15" viewBox="0 0 18 18" fill="none" xmlns="http://www.w3.org/2000/svg">
<path fill-rule="evenodd" clip-rule="evenodd" d="M16.4265 7.5583C18.0773 5.90763 18.0773 3.23128 16.4265 1.58056C14.7758 -0.0701488 12.0995 -0.0701488 10.4488 1.58056L7.49851 4.53085C7.20564 4.82373 7.20564 5.29855 7.49851 5.5915C7.79139 5.88438 8.26629 5.88438 8.55916 5.5915L11.5094 2.64122C12.5744 1.5763 14.3009 1.5763 15.3659 2.64122C16.4308 3.70615 16.4308 5.43273 15.3659 6.49765L12.4157 9.44793C11.3507 10.5129 9.62409 10.5129 8.55916 9.44793C8.43444 9.3232 8.32471 9.18993 8.22976 9.0502C7.99681 8.70768 7.53031 8.61888 7.18779 8.85175C6.84526 9.0847 6.75646 9.55113 6.98934 9.89365C7.13701 10.1109 7.30689 10.3169 7.49851 10.5086C9.14926 12.1593 11.8256 12.1593 13.4763 10.5086L16.4265 7.5583ZM1.58764 10.4417C-0.0630687 12.0924 -0.0630687 14.7687 1.58764 16.4194C3.23836 18.0702 5.91466 18.0702 7.56541 16.4194L10.5157 13.4692C10.8086 13.1763 10.8086 12.7014 10.5157 12.4085C10.2227 12.1156 9.74791 12.1156 9.45504 12.4085L6.50476 15.3588C5.43984 16.4237 3.71323 16.4237 2.64831 15.3588C1.58338 14.2938 1.58338 12.5673 2.64831 11.5023L5.59854 8.55205C6.66346 7.48713 8.39011 7.48713 9.45504 8.55205C9.57976 8.67678 9.68949 8.81005 9.78444 8.94978C10.0174 9.2923 10.4838 9.38118 10.8263 9.14823C11.1689 8.91535 11.2577 8.44885 11.0249 8.10633C10.8772 7.88913 10.7073 7.6831 10.5157 7.4914C8.86494 5.84073 6.18864 5.84073 4.53789 7.4914L1.58764 10.4417Z" fill="black"/>
</svg>
