<svg width="20" height="18" viewBox="0 0 20 18" fill="none" xmlns="http://www.w3.org/2000/svg">
<path d="M14.9842 0.492073L9.63668 5.59683L4.28918 0.492073C3.63299 -0.134323 2.56869 -0.134323 1.91251 0.492073L0.724174 1.62646C0.06799 2.25286 0.06799 3.26885 0.724173 3.89524L6.07168 9L0.724173 14.1048C0.06799 14.7312 0.06799 15.7471 0.724174 16.3735L1.91251 17.5079C2.56869 18.1343 3.63299 18.1343 4.28918 17.5079L9.63668 12.4032L14.9842 17.5079C15.6404 18.1343 16.7047 18.1343 17.3609 17.5079L18.5492 16.3735C19.2054 15.7471 19.2054 14.7312 18.5492 14.1048L13.2017 9L18.5492 3.89524C19.2054 3.26885 19.2054 2.25286 18.5492 1.62646L17.3609 0.492073C16.7047 -0.134323 15.6404 -0.134324 14.9842 0.492073Z" fill="black"/>
</svg>
