<svg width="11" height="13" viewBox="0 0 11 13" fill="none" xmlns="http://www.w3.org/2000/svg">
<path d="M0.5 13H5.89955C8.73815 13 10.25 11.5058 10.25 9.47635C10.25 7.58995 8.91095 6.4507 7.47313 6.38223V6.25772C8.7875 5.95885 9.75635 5.0188 9.75635 3.51842C9.75635 1.60718 8.34935 0.25 5.5601 0.25H0.5V13ZM3.17203 10.7961V7.40943H5.41205C6.6956 7.40943 7.49165 8.1565 7.49165 9.2086C7.49165 10.1673 6.84365 10.7961 5.35033 10.7961H3.17203ZM3.17203 5.58535V2.42895H5.2022C6.38705 2.42895 7.05965 3.04532 7.05965 3.9667C7.05965 4.97522 6.24508 5.58535 5.15285 5.58535H3.17203Z" fill="black"/>
</svg>
