<svg width="18" height="12" viewBox="0 0 18 12" fill="none" xmlns="http://www.w3.org/2000/svg">
<path fill-rule="evenodd" clip-rule="evenodd" d="M1.875 2.25C2.49632 2.25 3 1.7463 3 1.125C3 0.503677 2.49632 0 1.875 0C1.25368 0 0.75 0.503677 0.75 1.125C0.75 1.7463 1.25368 2.25 1.875 2.25ZM1.875 12C2.49632 12 3 11.4963 3 10.875C3 10.2537 2.49632 9.75 1.875 9.75C1.25368 9.75 0.75 10.2537 0.75 10.875C0.75 11.4963 1.25368 12 1.875 12ZM3 6C3 6.6213 2.49632 7.125 1.875 7.125C1.25368 7.125 0.75 6.6213 0.75 6C0.75 5.3787 1.25368 4.875 1.875 4.875C2.49632 4.875 3 5.3787 3 6ZM5.25 0.375C4.83577 0.375 4.5 0.71079 4.5 1.125C4.5 1.53922 4.83577 1.875 5.25 1.875H16.5C16.9142 1.875 17.25 1.53922 17.25 1.125C17.25 0.71079 16.9142 0.375 16.5 0.375H5.25ZM4.5 10.875C4.5 10.4608 4.83577 10.125 5.25 10.125H16.5C16.9142 10.125 17.25 10.4608 17.25 10.875C17.25 11.2892 16.9142 11.625 16.5 11.625H5.25C4.83577 11.625 4.5 11.2892 4.5 10.875ZM5.25 5.25C4.83577 5.25 4.5 5.58577 4.5 6C4.5 6.41423 4.83577 6.75 5.25 6.75H16.5C16.9142 6.75 17.25 6.41423 17.25 6C17.25 5.58577 16.9142 5.25 16.5 5.25H5.25Z" fill="black"/>
</svg>
