<svg width="26" height="26" viewBox="0 0 28 28" fill="none" xmlns="http://www.w3.org/2000/svg">
<path d="M13.6519 1L15.2625 3.32684L15.6068 3.82413L16.115 3.49642L18.4935 1.96308L19.0911 4.72915L19.2189 5.32031L19.8139 5.21209L22.5981 4.70565L22.0916 7.48988L21.9834 8.08488L22.5746 8.21262L25.3406 8.81025L23.8074 11.1888L23.4796 11.697L23.9769 12.0413L26.3038 13.6519L23.9769 15.2625L23.4796 15.6068L23.8074 16.115L25.3406 18.4935L22.5746 19.0911L21.9834 19.2189L22.0916 19.8139L22.5981 22.5981L19.8139 22.0916L19.2189 21.9834L19.0911 22.5746L18.4935 25.3406L16.115 23.8074L15.6068 23.4796L15.2625 23.9769L13.6519 26.3038L12.0413 23.9769L11.697 23.4796L11.1888 23.8074L8.81025 25.3406L8.21262 22.5746L8.08488 21.9834L7.48988 22.0916L4.70565 22.5981L5.21209 19.8139L5.32031 19.2189L4.72915 19.0911L1.96308 18.4935L3.49642 16.115L3.82413 15.6068L3.32684 15.2625L1 13.6519L3.32684 12.0413L3.82413 11.697L3.49642 11.1888L1.96308 8.81025L4.72915 8.21262L5.32031 8.08488L5.21209 7.48988L4.70565 4.70565L7.48988 5.21209L8.08488 5.32031L8.21262 4.72915L8.81025 1.96308L11.1888 3.49642L11.697 3.82413L12.0413 3.32684L13.6519 1Z" stroke="black"/>
</svg>
