<svg width="26" height="26" viewBox="0 0 26 26" fill="none" xmlns="http://www.w3.org/2000/svg">
<path d="M22.875 1H1V22.25M3.5 3.5H24.75V24.75H3.5V3.5Z" stroke="black"/>
<path d="M11.9821 17.7614H16.2679M12.6964 11.7386H15.5536M14.125 21.625C12.9415 21.625 11.9821 20.7092 11.9821 19.5795V18.2027C11.9821 17.3285 11.6705 16.4804 11.0984 15.7977L10.2838 14.8258C9.53363 13.9308 9.125 12.8188 9.125 11.6726V11.3978C9.125 8.76188 11.3636 6.625 14.125 6.625C16.8864 6.625 19.125 8.76188 19.125 11.3978V11.6726C19.125 12.8188 18.7164 13.9308 17.9662 14.8258L17.1516 15.7977C16.5795 16.4804 16.2679 17.3285 16.2679 18.2027V19.5795C16.2679 20.7092 15.3085 21.625 14.125 21.625Z" stroke="black"/>
</svg>
